<mxfile host="app.diagrams.net" modified="2024-04-16T15:14:42.726Z" agent="Mozilla/5.0 (X11; Linux x86_64) AppleWebKit/537.36 (KHTML, like Gecko) Chrome/122.0.0.0 Safari/537.36" etag="h7fsf2bdl3PB6gJgAHWB" version="24.2.3" type="github">
  <diagram name="PÃ¡gina-1" id="XoqRJKs4DmGHQuE5MKNu">
    <mxGraphModel dx="1035" dy="693" grid="1" gridSize="10" guides="1" tooltips="1" connect="1" arrows="1" fold="1" page="1" pageScale="1" pageWidth="827" pageHeight="1169" math="0" shadow="0">
      <root>
        <mxCell id="0" />
        <mxCell id="1" parent="0" />
        <mxCell id="QdpxkaZ6TE1F3J2TULaC-3" value="TermFilter" style="swimlane;fontStyle=1;align=center;verticalAlign=top;childLayout=stackLayout;horizontal=1;startSize=26;horizontalStack=0;resizeParent=1;resizeParentMax=0;resizeLast=0;collapsible=1;marginBottom=0;whiteSpace=wrap;html=1;" vertex="1" parent="1">
          <mxGeometry x="90" y="525" width="150" height="70" as="geometry" />
        </mxCell>
        <mxCell id="QdpxkaZ6TE1F3J2TULaC-6" value="&lt;p style=&quot;margin: 0px 0px 0px 4px;&quot;&gt;+ hasNext() : boolean&lt;/p&gt;&lt;p style=&quot;margin: 0px 0px 0px 4px;&quot;&gt;+ next() : String&lt;/p&gt;" style="text;strokeColor=none;fillColor=none;align=left;verticalAlign=top;spacingLeft=4;spacingRight=4;overflow=hidden;rotatable=0;points=[[0,0.5],[1,0.5]];portConstraint=eastwest;whiteSpace=wrap;html=1;" vertex="1" parent="QdpxkaZ6TE1F3J2TULaC-3">
          <mxGeometry y="26" width="150" height="44" as="geometry" />
        </mxCell>
        <mxCell id="QdpxkaZ6TE1F3J2TULaC-7" value="NormalizationFilter" style="swimlane;fontStyle=1;align=center;verticalAlign=top;childLayout=stackLayout;horizontal=1;startSize=26;horizontalStack=0;resizeParent=1;resizeParentMax=0;resizeLast=0;collapsible=1;marginBottom=0;whiteSpace=wrap;html=1;" vertex="1" parent="1">
          <mxGeometry x="270" y="525" width="170" height="70" as="geometry" />
        </mxCell>
        <mxCell id="QdpxkaZ6TE1F3J2TULaC-10" value="&lt;p style=&quot;margin: 0px 0px 0px 4px;&quot;&gt;+ hasNext() : boolean&lt;/p&gt;&lt;p style=&quot;margin: 0px 0px 0px 4px;&quot;&gt;+ next() : String&lt;/p&gt;" style="text;strokeColor=none;fillColor=none;align=left;verticalAlign=top;spacingLeft=4;spacingRight=4;overflow=hidden;rotatable=0;points=[[0,0.5],[1,0.5]];portConstraint=eastwest;whiteSpace=wrap;html=1;" vertex="1" parent="QdpxkaZ6TE1F3J2TULaC-7">
          <mxGeometry y="26" width="170" height="44" as="geometry" />
        </mxCell>
        <mxCell id="QdpxkaZ6TE1F3J2TULaC-11" style="edgeStyle=orthogonalEdgeStyle;rounded=0;orthogonalLoop=1;jettySize=auto;html=1;entryX=0.172;entryY=1;entryDx=0;entryDy=0;entryPerimeter=0;exitX=0.465;exitY=0.01;exitDx=0;exitDy=0;exitPerimeter=0;" edge="1" parent="1" source="QdpxkaZ6TE1F3J2TULaC-12" target="QdpxkaZ6TE1F3J2TULaC-25">
          <mxGeometry relative="1" as="geometry">
            <mxPoint x="443.94000000000005" y="329.9960000000001" as="targetPoint" />
            <Array as="points">
              <mxPoint x="539" y="479" />
              <mxPoint x="440" y="479" />
            </Array>
            <mxPoint x="540" y="543.72" as="sourcePoint" />
          </mxGeometry>
        </mxCell>
        <mxCell id="QdpxkaZ6TE1F3J2TULaC-12" value="VowelFilter" style="swimlane;fontStyle=1;align=center;verticalAlign=top;childLayout=stackLayout;horizontal=1;startSize=26;horizontalStack=0;resizeParent=1;resizeParentMax=0;resizeLast=0;collapsible=1;marginBottom=0;whiteSpace=wrap;html=1;" vertex="1" parent="1">
          <mxGeometry x="460" y="525" width="170" height="70" as="geometry" />
        </mxCell>
        <mxCell id="QdpxkaZ6TE1F3J2TULaC-15" value="&lt;p style=&quot;margin: 0px 0px 0px 4px;&quot;&gt;+ hasNext() : boolean&lt;/p&gt;&lt;p style=&quot;margin: 0px 0px 0px 4px;&quot;&gt;+ next() : String&lt;/p&gt;" style="text;strokeColor=none;fillColor=none;align=left;verticalAlign=top;spacingLeft=4;spacingRight=4;overflow=hidden;rotatable=0;points=[[0,0.5],[1,0.5]];portConstraint=eastwest;whiteSpace=wrap;html=1;" vertex="1" parent="QdpxkaZ6TE1F3J2TULaC-12">
          <mxGeometry y="26" width="170" height="44" as="geometry" />
        </mxCell>
        <mxCell id="QdpxkaZ6TE1F3J2TULaC-16" value="&lt;p style=&quot;margin:0px;margin-top:4px;text-align:center;&quot;&gt;&lt;i&gt;&amp;lt;&amp;lt;Interface&amp;gt;&amp;gt;&lt;/i&gt;&lt;br&gt;&lt;b&gt;TextInterface&lt;/b&gt;&lt;/p&gt;&lt;hr size=&quot;1&quot; style=&quot;border-style:solid;&quot;&gt;&lt;p style=&quot;margin:0px;margin-left:4px;&quot;&gt;+ hasNext() : boolean&lt;/p&gt;&lt;p style=&quot;margin:0px;margin-left:4px;&quot;&gt;+ next() : String&lt;/p&gt;" style="verticalAlign=top;align=left;overflow=fill;html=1;whiteSpace=wrap;" vertex="1" parent="1">
          <mxGeometry x="130" y="50" width="190" height="80" as="geometry" />
        </mxCell>
        <mxCell id="QdpxkaZ6TE1F3J2TULaC-17" value="TextReader" style="swimlane;fontStyle=1;align=center;verticalAlign=top;childLayout=stackLayout;horizontal=1;startSize=26;horizontalStack=0;resizeParent=1;resizeParentMax=0;resizeLast=0;collapsible=1;marginBottom=0;whiteSpace=wrap;html=1;" vertex="1" parent="1">
          <mxGeometry x="70" y="310" width="160" height="70" as="geometry" />
        </mxCell>
        <mxCell id="QdpxkaZ6TE1F3J2TULaC-20" value="&lt;p style=&quot;margin: 0px 0px 0px 4px;&quot;&gt;+ hasNext() : boolean&lt;/p&gt;&lt;p style=&quot;margin: 0px 0px 0px 4px;&quot;&gt;+ next() : String&lt;/p&gt;" style="text;strokeColor=none;fillColor=none;align=left;verticalAlign=top;spacingLeft=4;spacingRight=4;overflow=hidden;rotatable=0;points=[[0,0.5],[1,0.5]];portConstraint=eastwest;whiteSpace=wrap;html=1;" vertex="1" parent="QdpxkaZ6TE1F3J2TULaC-17">
          <mxGeometry y="26" width="160" height="44" as="geometry" />
        </mxCell>
        <mxCell id="QdpxkaZ6TE1F3J2TULaC-21" style="edgeStyle=orthogonalEdgeStyle;rounded=0;orthogonalLoop=1;jettySize=auto;html=1;entryX=0.105;entryY=0.999;entryDx=0;entryDy=0;entryPerimeter=0;endArrow=block;endFill=0;dashed=1;endSize=10;" edge="1" parent="1" source="QdpxkaZ6TE1F3J2TULaC-17" target="QdpxkaZ6TE1F3J2TULaC-16">
          <mxGeometry relative="1" as="geometry" />
        </mxCell>
        <mxCell id="QdpxkaZ6TE1F3J2TULaC-22" value="TextDecorator" style="swimlane;fontStyle=1;align=center;verticalAlign=top;childLayout=stackLayout;horizontal=1;startSize=26;horizontalStack=0;resizeParent=1;resizeParentMax=0;resizeLast=0;collapsible=1;marginBottom=0;whiteSpace=wrap;html=1;" vertex="1" parent="1">
          <mxGeometry x="390" y="240" width="290" height="70" as="geometry" />
        </mxCell>
        <mxCell id="QdpxkaZ6TE1F3J2TULaC-25" value="&lt;p style=&quot;margin: 0px 0px 0px 4px;&quot;&gt;+ hasNext() : boolean&lt;/p&gt;&lt;p style=&quot;margin: 0px 0px 0px 4px;&quot;&gt;+ next() : String&lt;/p&gt;" style="text;strokeColor=none;fillColor=none;align=left;verticalAlign=top;spacingLeft=4;spacingRight=4;overflow=hidden;rotatable=0;points=[[0,0.5],[1,0.5]];portConstraint=eastwest;whiteSpace=wrap;html=1;" vertex="1" parent="QdpxkaZ6TE1F3J2TULaC-22">
          <mxGeometry y="26" width="290" height="44" as="geometry" />
        </mxCell>
        <mxCell id="QdpxkaZ6TE1F3J2TULaC-26" style="edgeStyle=orthogonalEdgeStyle;rounded=0;orthogonalLoop=1;jettySize=auto;html=1;entryX=1.016;entryY=0.374;entryDx=0;entryDy=0;entryPerimeter=0;startArrow=diamondThin;startFill=0;jumpSize=20;startSize=20;endSize=10;" edge="1" parent="1" source="QdpxkaZ6TE1F3J2TULaC-22" target="QdpxkaZ6TE1F3J2TULaC-16">
          <mxGeometry relative="1" as="geometry">
            <Array as="points">
              <mxPoint x="540" y="87" />
            </Array>
          </mxGeometry>
        </mxCell>
        <mxCell id="QdpxkaZ6TE1F3J2TULaC-28" style="edgeStyle=orthogonalEdgeStyle;rounded=0;orthogonalLoop=1;jettySize=auto;html=1;entryX=0.118;entryY=1.023;entryDx=0;entryDy=0;entryPerimeter=0;" edge="1" parent="1" target="QdpxkaZ6TE1F3J2TULaC-25">
          <mxGeometry relative="1" as="geometry">
            <mxPoint x="130" y="525" as="sourcePoint" />
            <mxPoint x="435.59000000000015" y="403.672" as="targetPoint" />
            <Array as="points">
              <mxPoint x="130" y="480" />
              <mxPoint x="420" y="480" />
              <mxPoint x="420" y="404" />
              <mxPoint x="424" y="404" />
            </Array>
          </mxGeometry>
        </mxCell>
        <mxCell id="QdpxkaZ6TE1F3J2TULaC-29" style="edgeStyle=orthogonalEdgeStyle;rounded=0;orthogonalLoop=1;jettySize=auto;html=1;entryX=0.068;entryY=0.992;entryDx=0;entryDy=0;entryPerimeter=0;exitX=0.433;exitY=0.01;exitDx=0;exitDy=0;exitPerimeter=0;" edge="1" parent="1" source="QdpxkaZ6TE1F3J2TULaC-7" target="QdpxkaZ6TE1F3J2TULaC-25">
          <mxGeometry relative="1" as="geometry">
            <Array as="points">
              <mxPoint x="344" y="481" />
              <mxPoint x="410" y="481" />
            </Array>
            <mxPoint x="343" y="520" as="sourcePoint" />
            <mxPoint x="413.29999999999995" y="330.00199999999995" as="targetPoint" />
          </mxGeometry>
        </mxCell>
        <mxCell id="QdpxkaZ6TE1F3J2TULaC-31" style="edgeStyle=orthogonalEdgeStyle;rounded=0;orthogonalLoop=1;jettySize=auto;html=1;dashed=1;" edge="1" parent="1" source="QdpxkaZ6TE1F3J2TULaC-34">
          <mxGeometry relative="1" as="geometry">
            <Array as="points">
              <mxPoint x="430" y="720" />
              <mxPoint x="170" y="720" />
            </Array>
            <mxPoint x="170" y="595" as="targetPoint" />
          </mxGeometry>
        </mxCell>
        <mxCell id="QdpxkaZ6TE1F3J2TULaC-33" style="edgeStyle=orthogonalEdgeStyle;rounded=0;orthogonalLoop=1;jettySize=auto;html=1;entryX=0;entryY=0.25;entryDx=0;entryDy=0;dashed=1;" edge="1" parent="1" source="QdpxkaZ6TE1F3J2TULaC-34" target="QdpxkaZ6TE1F3J2TULaC-16">
          <mxGeometry relative="1" as="geometry">
            <Array as="points">
              <mxPoint x="20" y="790" />
              <mxPoint x="20" y="75" />
            </Array>
          </mxGeometry>
        </mxCell>
        <mxCell id="QdpxkaZ6TE1F3J2TULaC-42" style="edgeStyle=orthogonalEdgeStyle;rounded=0;orthogonalLoop=1;jettySize=auto;html=1;dashed=1;" edge="1" parent="1" source="QdpxkaZ6TE1F3J2TULaC-34" target="QdpxkaZ6TE1F3J2TULaC-40">
          <mxGeometry relative="1" as="geometry">
            <mxPoint x="730" y="600" as="targetPoint" />
            <Array as="points">
              <mxPoint x="430" y="720" />
              <mxPoint x="731" y="720" />
            </Array>
          </mxGeometry>
        </mxCell>
        <mxCell id="QdpxkaZ6TE1F3J2TULaC-34" value="Main" style="swimlane;fontStyle=0;childLayout=stackLayout;horizontal=1;startSize=26;fillColor=none;horizontalStack=0;resizeParent=1;resizeParentMax=0;resizeLast=0;collapsible=1;marginBottom=0;whiteSpace=wrap;html=1;" vertex="1" parent="1">
          <mxGeometry x="340" y="750" width="140" height="52" as="geometry" />
        </mxCell>
        <mxCell id="QdpxkaZ6TE1F3J2TULaC-35" value="+ field: type" style="text;strokeColor=none;fillColor=none;align=left;verticalAlign=top;spacingLeft=4;spacingRight=4;overflow=hidden;rotatable=0;points=[[0,0.5],[1,0.5]];portConstraint=eastwest;whiteSpace=wrap;html=1;" vertex="1" parent="QdpxkaZ6TE1F3J2TULaC-34">
          <mxGeometry y="26" width="140" height="26" as="geometry" />
        </mxCell>
        <mxCell id="QdpxkaZ6TE1F3J2TULaC-36" style="edgeStyle=orthogonalEdgeStyle;rounded=0;orthogonalLoop=1;jettySize=auto;html=1;entryX=0.452;entryY=1.013;entryDx=0;entryDy=0;entryPerimeter=0;dashed=1;" edge="1" parent="1">
          <mxGeometry relative="1" as="geometry">
            <mxPoint x="430" y="749.43" as="sourcePoint" />
            <mxPoint x="556.8399999999999" y="595.0019999999998" as="targetPoint" />
            <Array as="points">
              <mxPoint x="430" y="720" />
              <mxPoint x="557" y="720" />
            </Array>
          </mxGeometry>
        </mxCell>
        <mxCell id="QdpxkaZ6TE1F3J2TULaC-37" value="CapitalizationFilter" style="swimlane;fontStyle=1;align=center;verticalAlign=top;childLayout=stackLayout;horizontal=1;startSize=26;horizontalStack=0;resizeParent=1;resizeParentMax=0;resizeLast=0;collapsible=1;marginBottom=0;whiteSpace=wrap;html=1;" vertex="1" parent="1">
          <mxGeometry x="650" y="525" width="170" height="70" as="geometry" />
        </mxCell>
        <mxCell id="QdpxkaZ6TE1F3J2TULaC-40" value="&lt;div&gt;&lt;p style=&quot;margin: 0px 0px 0px 4px;&quot;&gt;+ hasNext() : boolean&lt;/p&gt;&lt;p style=&quot;margin: 0px 0px 0px 4px;&quot;&gt;+ next() : String&lt;/p&gt;&lt;/div&gt;" style="text;strokeColor=none;fillColor=none;align=left;verticalAlign=top;spacingLeft=4;spacingRight=4;overflow=hidden;rotatable=0;points=[[0,0.5],[1,0.5]];portConstraint=eastwest;whiteSpace=wrap;html=1;" vertex="1" parent="QdpxkaZ6TE1F3J2TULaC-37">
          <mxGeometry y="26" width="170" height="44" as="geometry" />
        </mxCell>
        <mxCell id="QdpxkaZ6TE1F3J2TULaC-41" style="edgeStyle=orthogonalEdgeStyle;rounded=0;orthogonalLoop=1;jettySize=auto;html=1;exitX=0.5;exitY=0;exitDx=0;exitDy=0;entryX=0.139;entryY=1.008;entryDx=0;entryDy=0;entryPerimeter=0;" edge="1" parent="1" source="QdpxkaZ6TE1F3J2TULaC-37" target="QdpxkaZ6TE1F3J2TULaC-25">
          <mxGeometry relative="1" as="geometry">
            <mxPoint x="650" y="525" as="sourcePoint" />
            <mxPoint x="430" y="320" as="targetPoint" />
          </mxGeometry>
        </mxCell>
        <mxCell id="QdpxkaZ6TE1F3J2TULaC-43" style="edgeStyle=orthogonalEdgeStyle;rounded=0;orthogonalLoop=1;jettySize=auto;html=1;entryX=0.002;entryY=0.038;entryDx=0;entryDy=0;entryPerimeter=0;dashed=1;" edge="1" parent="1" source="QdpxkaZ6TE1F3J2TULaC-35" target="QdpxkaZ6TE1F3J2TULaC-20">
          <mxGeometry relative="1" as="geometry">
            <mxPoint x="70.79999999999995" y="384.18000000000006" as="targetPoint" />
            <Array as="points">
              <mxPoint x="340" y="770" />
              <mxPoint x="50" y="770" />
              <mxPoint x="50" y="338" />
            </Array>
          </mxGeometry>
        </mxCell>
        <mxCell id="QdpxkaZ6TE1F3J2TULaC-44" style="edgeStyle=orthogonalEdgeStyle;rounded=0;orthogonalLoop=1;jettySize=auto;html=1;entryX=0.595;entryY=1.004;entryDx=0;entryDy=0;entryPerimeter=0;dashed=1;" edge="1" parent="1">
          <mxGeometry relative="1" as="geometry">
            <mxPoint x="429.43" y="749.82" as="sourcePoint" />
            <mxPoint x="390.5800000000001" y="594.996" as="targetPoint" />
            <Array as="points">
              <mxPoint x="429" y="720" />
              <mxPoint x="391" y="720" />
            </Array>
          </mxGeometry>
        </mxCell>
      </root>
    </mxGraphModel>
  </diagram>
</mxfile>
